<?xml version="1.0" encoding="UTF-8" standalone="no" ?>
<!DOCTYPE svg PUBLIC "-//W3C//DTD SVG 1.1//EN" "http://www.w3.org/Graphics/SVG/1.1/DTD/svg11.dtd">
<svg xmlns="http://www.w3.org/2000/svg" xmlns:xlink="http://www.w3.org/1999/xlink" version="1.1" width="1280" height="1024" viewBox="0 0 1280 1024" xml:space="preserve">
<desc>Created with Fabric.js 5.3.0</desc>
<defs>
</defs>
<g transform="matrix(1 0 0 1 640 512)" id="background-logo"  >
<rect style="stroke: none; stroke-width: 0; stroke-dasharray: none; stroke-linecap: butt; stroke-dashoffset: 0; stroke-linejoin: miter; stroke-miterlimit: 4; fill: rgb(255,255,255); fill-opacity: 0; fill-rule: nonzero; opacity: 1;"  paint-order="stroke"  x="-640" y="-512" rx="0" ry="0" width="1280" height="1024" />
</g>
<g transform="matrix(1.9211538461538462 0 0 1.9211538461538462 640 406.1314191207455)" id="logo-logo"  >
<g style=""  paint-order="stroke"   >
		<g transform="matrix(0.7543190538528519 0 0 0.7543190538528519 0 0)"  >
<g style=""  paint-order="stroke"   >
		<g transform="matrix(1 0 0 1 0 0)"  >
<path style="stroke: none; stroke-width: 1; stroke-dasharray: none; stroke-linecap: butt; stroke-dashoffset: 0; stroke-linejoin: miter; stroke-miterlimit: 4; fill: rgb(84,150,232); fill-rule: nonzero; opacity: 1;"  paint-order="stroke"  transform=" translate(-124.99999525968866, -123.745115)" d="M 243.5591 161.96729 L 243.40155000000001 162.43994999999998 L 233.75874000000002 159.22266 L 233.91629 158.75 C 241.7774 135.17737 241.80269 110.20824999999999 233.98923 86.53931 C 221.17104999999998 47.71717 188.31252999999998 18.426879999999997 148.23772 10.099980000000002 L 147.75047999999998 9.998780000000002 L 149.81812 0.045780000000002374 L 150.30536 0.14685000000000237 C 193.92511000000002 9.211060000000002 229.68961000000002 41.09314 243.64177 83.35229 C 252.14767 109.11902 252.1185 136.30261 243.5591 161.96729 z M 89.00613 13.52722 C 93.26832 12.12085 97.637 10.953859999999999 101.99014 10.0581 L 102.47787 9.958 L 100.42822 0 L 99.94049 0.1012 C 95.18959 1.07959 90.4387 2.34974 85.81958 3.87561 C 54.17724 14.32178 28.47472 36.50952 13.44643 66.35217 C -1.58186 96.19385 -4.10514 130.05505 6.341 161.6969 L 6.58169 162.42725 L 16.234740000000002 159.24024 L 15.994020000000003 158.50977 C -3.8484 98.4093 28.90508 33.37012 89.00613 13.52722 z M 210.77548 198.81897 C 197.42045 213.86633 180.20050999999998 225.17407 160.97616 231.52295 C 149.31628999999998 235.37219000000002 137.19979 237.32410000000002 124.96221 237.32410000000002 C 92.23545999999999 237.32410000000002 60.97291 223.28931000000003 39.19123999999999 198.81897 L 38.860079999999996 198.44653 L 31.266909999999996 205.20666 L 31.598069999999996 205.57824 C 55.30781999999999 232.21435 89.33679 247.49023 124.96024999999999 247.49023 C 138.28172999999998 247.49023 151.47143999999997 245.36621 164.16415999999998 241.17541 C 185.08657999999997 234.26647 203.83342999999996 221.953 218.37884999999997 205.5675 L 218.70950999999997 205.19505999999998 L 211.10612999999998 198.44652 L 210.77548 198.81897 z" stroke-linecap="round" />
</g>
</g>
</g>
		<g transform="matrix(0.34892120674750254 0.38751625890308056 -0.3875162589030805 0.34892120674750277 30.131750371202656 -29.23904563515353)"  >
<g style=""  paint-order="stroke"   >
		<g transform="matrix(1 0 0 1 0 0)"  >
<path style="stroke: none; stroke-width: 1; stroke-dasharray: none; stroke-linecap: butt; stroke-dashoffset: 0; stroke-linejoin: miter; stroke-miterlimit: 4; fill: rgb(9,76,162); fill-rule: nonzero; opacity: 1;"  paint-order="stroke"  transform=" translate(-99.99996000000002, -67.888825)" d="M 191.4566 54.38519 C 189.29930000000002 54.38519 187.14201 53.57353 185.47935 51.94543 C 162.52505000000002 29.466690000000003 132.17042 17.0867 100.00652000000001 17.0867 C 67.83547000000002 17.0867 37.47606000000001 29.46669 14.52058000000001 51.94543 C 11.15115000000001 55.24573 5.7424300000000095 55.19328 2.439750000000009 51.81909 C -0.8617399999999908 48.44847 -0.8057199999999911 43.038560000000004 2.566090000000009 39.738260000000004 C 28.73368 14.11298 63.33853 0 100.00652 0 C 136.66736 0 171.26745 14.11298 197.43383 39.73826 C 200.80564 43.03975 200.86166 48.44847 197.56017 51.819089999999996 C 195.8868 53.52823 193.67229 54.38519 191.4566 54.38519 z M 167.87538 77.02007 C 171.04219 73.52192000000001 170.77521000000002 68.11915 167.27824 64.95234 C 148.79229 48.211290000000005 124.90118000000001 38.990950000000005 100.00652000000001 38.990950000000005 C 75.10470000000001 38.990950000000005 51.208830000000006 48.21128 32.722870000000015 64.95234 C 29.225910000000013 68.11915 28.958930000000016 73.52191 32.125740000000015 77.02007 C 35.293740000000014 80.51703 40.696500000000015 80.784 44.193460000000016 77.61719000000001 C 59.530490000000015 63.72710000000001 79.35254000000002 56.077650000000006 100.00652000000002 56.077650000000006 C 120.65335000000002 56.077650000000006 140.47062000000003 63.727090000000004 155.80766000000003 77.61719000000001 C 157.44290000000004 79.09869 159.49531000000002 79.82812000000001 161.54057000000003 79.82812000000001 C 163.86949 79.82812 166.18887 78.88177 167.87538 77.02007 z M 138.2466 101.93856 C 141.06656 98.15556 140.28589 92.80284999999999 136.50408 89.98169 C 125.88209999999998 82.06288 113.26135 77.87702 100.00653 77.87702 C 86.75289 77.87702 74.12976 82.05692 63.50302 89.96619 C 59.71882 92.78259 58.93338 98.13529 61.75097 101.92068 C 64.56736000000001 105.70368 69.91768 106.49390000000001 73.70546 103.67273 C 81.36087 97.97558000000001 90.45606000000001 94.96371 100.00654 94.96371 C 109.55345 94.96371 118.64148 97.97796000000001 126.28974 103.68108000000001 C 127.82368 104.82409000000001 129.61387 105.37592000000001 131.38976 105.37473000000001 C 133.99518 105.37473 136.56844 104.18763 138.2466 101.93856 z M 100.00108 135.77765 C 106.59274 135.77765 111.93633 130.43407 111.93633 123.84241 C 111.93633 117.25075000000001 106.59273999999999 111.90716 100.00108 111.90716 C 93.40943 111.90716 88.06583 117.25075000000001 88.06583 123.84241 C 88.06583 130.43407 93.40943 135.77765 100.00108 135.77765 z" stroke-linecap="round" />
</g>
</g>
</g>
		<g transform="matrix(0.3518677625252105 0.3907887406254453 0.3907887406254458 -0.3518677625252111 -29.614929854466425 28.71175925337141)"  >
<g style=""  paint-order="stroke"   >
		<g transform="matrix(1 0 0 1 0 0)"  >
<path style="stroke: none; stroke-width: 1; stroke-dasharray: none; stroke-linecap: butt; stroke-dashoffset: 0; stroke-linejoin: miter; stroke-miterlimit: 4; fill: rgb(9,76,162); fill-rule: nonzero; opacity: 1;"  paint-order="stroke"  transform=" translate(-99.99996000000002, -67.888825)" d="M 191.4566 54.38519 C 189.29930000000002 54.38519 187.14201 53.57353 185.47935 51.94543 C 162.52505000000002 29.466690000000003 132.17042 17.0867 100.00652000000001 17.0867 C 67.83547000000002 17.0867 37.47606000000001 29.46669 14.52058000000001 51.94543 C 11.15115000000001 55.24573 5.7424300000000095 55.19328 2.439750000000009 51.81909 C -0.8617399999999908 48.44847 -0.8057199999999911 43.038560000000004 2.566090000000009 39.738260000000004 C 28.73368 14.11298 63.33853 0 100.00652 0 C 136.66736 0 171.26745 14.11298 197.43383 39.73826 C 200.80564 43.03975 200.86166 48.44847 197.56017 51.819089999999996 C 195.8868 53.52823 193.67229 54.38519 191.4566 54.38519 z M 167.87538 77.02007 C 171.04219 73.52192000000001 170.77521000000002 68.11915 167.27824 64.95234 C 148.79229 48.211290000000005 124.90118000000001 38.990950000000005 100.00652000000001 38.990950000000005 C 75.10470000000001 38.990950000000005 51.208830000000006 48.21128 32.722870000000015 64.95234 C 29.225910000000013 68.11915 28.958930000000016 73.52191 32.125740000000015 77.02007 C 35.293740000000014 80.51703 40.696500000000015 80.784 44.193460000000016 77.61719000000001 C 59.530490000000015 63.72710000000001 79.35254000000002 56.077650000000006 100.00652000000002 56.077650000000006 C 120.65335000000002 56.077650000000006 140.47062000000003 63.727090000000004 155.80766000000003 77.61719000000001 C 157.44290000000004 79.09869 159.49531000000002 79.82812000000001 161.54057000000003 79.82812000000001 C 163.86949 79.82812 166.18887 78.88177 167.87538 77.02007 z M 138.2466 101.93856 C 141.06656 98.15556 140.28589 92.80284999999999 136.50408 89.98169 C 125.88209999999998 82.06288 113.26135 77.87702 100.00653 77.87702 C 86.75289 77.87702 74.12976 82.05692 63.50302 89.96619 C 59.71882 92.78259 58.93338 98.13529 61.75097 101.92068 C 64.56736000000001 105.70368 69.91768 106.49390000000001 73.70546 103.67273 C 81.36087 97.97558000000001 90.45606000000001 94.96371 100.00654 94.96371 C 109.55345 94.96371 118.64148 97.97796000000001 126.28974 103.68108000000001 C 127.82368 104.82409000000001 129.61387 105.37592000000001 131.38976 105.37473000000001 C 133.99518 105.37473 136.56844 104.18763 138.2466 101.93856 z M 100.00108 135.77765 C 106.59274 135.77765 111.93633 130.43407 111.93633 123.84241 C 111.93633 117.25075000000001 106.59273999999999 111.90716 100.00108 111.90716 C 93.40943 111.90716 88.06583 117.25075000000001 88.06583 123.84241 C 88.06583 130.43407 93.40943 135.77765 100.00108 135.77765 z" stroke-linecap="round" />
</g>
</g>
</g>
		<g transform="matrix(1.1229084173862125 0 0 0.09581383249607156 0 0)"  >
<g style=""  paint-order="stroke"   >
		<g transform="matrix(1 0 0 1 0 0)"  >
<polygon style="stroke: none; stroke-width: 1; stroke-dasharray: none; stroke-linecap: butt; stroke-dashoffset: 0; stroke-linejoin: miter; stroke-miterlimit: 4; fill: rgb(9,76,162); fill-rule: nonzero; opacity: 1;"  paint-order="stroke"  points="100,-50 -100,-50 -100,50 100,50 100,-50 100,-50 " />
</g>
</g>
</g>
		<g transform="matrix(0 1.1229084173862125 -0.09581383249607156 0 0 0)"  >
<g style=""  paint-order="stroke"   >
		<g transform="matrix(1 0 0 1 0 0)"  >
<polygon style="stroke: none; stroke-width: 1; stroke-dasharray: none; stroke-linecap: butt; stroke-dashoffset: 0; stroke-linejoin: miter; stroke-miterlimit: 4; fill: rgb(9,76,162); fill-rule: nonzero; opacity: 1;"  paint-order="stroke"  points="100,-50 -100,-50 -100,50 100,50 100,-50 100,-50 " />
</g>
</g>
</g>
		<g transform="matrix(0.375789137751227 0 0 0.375789137751227 0 0)"  >
<g style=""  paint-order="stroke"   >
		<g transform="matrix(1 0 0 1 0 0)"  >
<path style="stroke: none; stroke-width: 1; stroke-dasharray: none; stroke-linecap: butt; stroke-dashoffset: 0; stroke-linejoin: miter; stroke-miterlimit: 4; fill: rgb(9,76,162); fill-rule: nonzero; opacity: 1;"  paint-order="stroke"  transform=" translate(-100, -100)" d="M 200 100 C 200 155.22847498307934 155.22847498307934 200 100 200 C 44.771525016920656 200 0 155.22847498307934 0 100 C 0 44.771525016920656 44.771525016920656 0 100 0 C 155.22847498307934 0 200 44.77152501692063 200 99.99999999999997 Z" stroke-linecap="round" />
</g>
</g>
</g>
</g>
</g>
<g transform="matrix(1.9211538461538462 0 0 1.9211538461538462 641.4523923076922 713.6816752194135)" id="text-logo"  >
<g style=""  paint-order="stroke"   >
		<g transform="matrix(1 0 0 1 0 0)" id="text-logo-path-0"  >
<path style="stroke: none; stroke-width: 0; stroke-dasharray: none; stroke-linecap: butt; stroke-dashoffset: 0; stroke-linejoin: miter; stroke-miterlimit: 4; fill: rgb(9,76,162); fill-rule: nonzero; opacity: 1;"  paint-order="stroke"  transform=" translate(-139.13, 19.599999999999998)" d="M 22.23 -32.65 C 26.71 -32.65 30.8 -30.8 33.49 -27.83 L 37.97 -33.49 C 34.1 -37.24 28.45 -39.76 22.23 -39.76 C 11.14 -39.76 2.07 -30.74 2.07 -19.6 C 2.07 -8.51 11.09 0.56 22.23 0.56 C 28.39 0.56 34.05 -1.85 37.97 -5.71 L 33.49 -11.42 C 30.8 -8.4 26.77 -6.55 22.96 -6.55 C 15.06 -6.55 9.18 -12.38 9.18 -19.6 C 9.18 -26.77 15.01 -32.65 22.23 -32.65 Z M 61.94 -39.2 L 46.37 -39.2 L 46.37 0 L 53.37 0 L 53.37 -14.45 L 58.91 -14.45 L 69.33 0 L 76.89 0 L 66.02 -15.12 C 71.01 -16.74 74.65 -21.39 74.65 -26.82 C 74.65 -33.66 68.99 -39.2 61.94 -39.2 Z M 61.94 -20.89 L 53.37 -20.89 L 53.37 -32.76 L 61.94 -32.76 C 65.13 -32.76 67.82 -30.13 67.82 -26.82 C 67.82 -23.58 65.18 -20.89 61.94 -20.89 Z M 100.13 0.56 C 108.75 0.56 115.81 -6.44 115.81 -15.12 L 115.81 -39.2 L 108.81 -39.2 L 108.81 -15.23 C 108.81 -10.47 104.94 -6.55 100.13 -6.55 C 95.37 -6.55 91.45 -10.42 91.45 -15.23 L 91.45 -39.2 L 84.45 -39.2 L 84.45 -15.12 C 84.45 -6.5 91.45 0.56 100.13 0.56 Z M 140.84 -12.94 L 149.8 0 L 157.92 0 L 144.93 -18.82 L 159.04 -39.2 L 150.92 -39.2 L 140.84 -24.64 L 130.76 -39.2 L 122.64 -39.2 L 136.81 -18.82 L 123.76 0 L 131.88 0 Z M 182.06 -39.2 L 166.49 -39.2 L 166.49 0 L 182.06 0 C 193.2 0 202.22 -8.79 202.22 -19.6 C 202.22 -30.41 193.2 -39.2 182.06 -39.2 Z M 173.49 -32.76 L 182.06 -32.76 C 189.22 -32.76 195.1 -26.88 195.1 -19.6 C 195.1 -12.38 189.28 -6.44 182.06 -6.44 L 173.49 -6.44 Z M 211.12 -39.2 L 211.12 0 L 236.77 0 L 236.77 -6.44 L 218.12 -6.44 L 218.12 -14.45 L 233.97 -14.45 L 233.97 -20.89 L 218.12 -20.89 L 218.12 -32.76 L 236.77 -32.76 L 236.77 -39.2 Z M 276.19 -39.2 L 269.19 -39.2 L 259.39 -14.67 L 249.59 -39.2 L 242.59 -39.2 L 258.27 0 L 260.51 0 Z" stroke-linecap="round" />
</g>
</g>
</g>
</svg>