<?xml version="1.0" encoding="UTF-8" standalone="no"?>
<svg
   version="1.1"
   width="1280"
   height="1024"
   viewBox="0 0 1280 1024"
   xml:space="preserve"
   id="svg20"
   sodipodi:docname="Cruxdev_IconOnly_Print_Transparent.svg"
   inkscape:version="1.4.3 (0d15f75, 2025-12-25)"
   xmlns:inkscape="http://www.inkscape.org/namespaces/inkscape"
   xmlns:sodipodi="http://sodipodi.sourceforge.net/DTD/sodipodi-0.dtd"
   xmlns="http://www.w3.org/2000/svg"
   xmlns:svg="http://www.w3.org/2000/svg"><sodipodi:namedview
   id="namedview20"
   pagecolor="#ffffff"
   bordercolor="#000000"
   borderopacity="0.25"
   inkscape:showpageshadow="2"
   inkscape:pageopacity="0.0"
   inkscape:pagecheckerboard="0"
   inkscape:deskcolor="#d1d1d1"
   inkscape:zoom="0.8125"
   inkscape:cx="644.30769"
   inkscape:cy="506.46154"
   inkscape:window-width="3420"
   inkscape:window-height="1362"
   inkscape:window-x="10"
   inkscape:window-y="306"
   inkscape:window-maximized="0"
   inkscape:current-layer="svg20" />
<desc
   id="desc1">Created with Fabric.js 5.3.0</desc>
<defs
   id="defs1">
</defs>
<g
   transform="matrix(1 0 0 1 640 512)"
   id="background-logo">
<rect
   style="stroke: none; stroke-width: 0; stroke-dasharray: none; stroke-linecap: butt; stroke-dashoffset: 0; stroke-linejoin: miter; stroke-miterlimit: 4; fill: rgb(255,255,255); fill-opacity: 0; fill-rule: nonzero; opacity: 1;"
   paint-order="stroke"
   x="-640"
   y="-512"
   rx="0"
   ry="0"
   width="1280"
   height="1024"
   id="rect1" />
</g>
<g
   transform="matrix(1.9211538,0,0,1.9211538,632.61538,541.51603)"
   id="logo-logo">
<g
   paint-order="stroke"
   id="g19">
		<g
   transform="scale(0.75431905)"
   id="g3">
<g
   paint-order="stroke"
   id="g2">
		<g
   id="g1">
<path
   style="opacity:1;fill:#5496e8;fill-rule:nonzero;stroke:none;stroke-width:1;stroke-linecap:butt;stroke-linejoin:miter;stroke-miterlimit:4;stroke-dasharray:none;stroke-dashoffset:0"
   paint-order="stroke"
   transform="translate(-125,-123.74512)"
   d="m 243.5591,161.96729 -0.15755,0.47266 -9.64281,-3.21729 0.15755,-0.47266 c 7.86111,-23.57263 7.8864,-48.54175 0.0729,-72.21069 -12.81818,-38.82214 -45.6767,-68.11243 -85.75151,-76.43933 l -0.48724,-0.1012 2.06764,-9.953 0.48724,0.10107 c 43.61975,9.06421 79.38425,40.94629 93.33641,83.20544 8.5059,25.76673 8.47673,52.95032 -0.0827,78.615 z M 89.00613,13.52722 C 93.26832,12.12085 97.637,10.95386 101.99014,10.0581 L 102.47787,9.958 100.42822,0 99.94049,0.1012 C 95.18959,1.07959 90.4387,2.34974 85.81958,3.87561 54.17724,14.32178 28.47472,36.50952 13.44643,66.35217 -1.58186,96.19385 -4.10514,130.05505 6.341,161.6969 l 0.24069,0.73035 9.65305,-3.18701 -0.24072,-0.73047 C -3.8484,98.4093 28.90508,33.37012 89.00613,13.52722 Z m 121.76935,185.29175 c -13.35503,15.04736 -30.57497,26.3551 -49.79932,32.70398 -11.65987,3.84924 -23.77637,5.80115 -36.01395,5.80115 -32.72675,0 -63.9893,-14.03479 -85.77097,-38.50513 l -0.33116,-0.37244 -7.59317,6.76013 0.33116,0.37158 c 23.70975,26.63611 57.73872,41.91199 93.36218,41.91199 13.32148,0 26.51119,-2.12402 39.20391,-6.31482 20.92242,-6.90894 39.66927,-19.22241 54.21469,-35.60791 l 0.33066,-0.37244 -7.60338,-6.74854 z"
   stroke-linecap="round"
   id="path1" />
</g>
</g>
</g>
		<g
   transform="matrix(0.34892121,0.38751626,-0.38751626,0.34892121,30.13175,-29.239046)"
   id="g6">
<g
   paint-order="stroke"
   id="g5">
		<g
   id="g4">
<path
   style="opacity:1;fill:#094ca2;fill-rule:nonzero;stroke:none;stroke-width:1;stroke-linecap:butt;stroke-linejoin:miter;stroke-miterlimit:4;stroke-dasharray:none;stroke-dashoffset:0"
   paint-order="stroke"
   transform="translate(-99.99996,-67.888825)"
   d="m 191.4566,54.38519 c -2.1573,0 -4.31459,-0.81166 -5.97725,-2.43976 C 162.52505,29.46669 132.17042,17.0867 100.00652,17.0867 67.83547,17.0867 37.47606,29.46669 14.52058,51.94543 11.15115,55.24573 5.74243,55.19328 2.43975,51.81909 -0.86174,48.44847 -0.80572,43.03856 2.56609,39.73826 28.73368,14.11298 63.33853,0 100.00652,0 c 36.66084,0 71.26093,14.11298 97.42731,39.73826 3.37181,3.30149 3.42783,8.71021 0.12634,12.08083 -1.67337,1.70914 -3.88788,2.5661 -6.10357,2.5661 z m -23.58122,22.63488 c 3.16681,-3.49815 2.89983,-8.90092 -0.59714,-12.06773 -18.48595,-16.74105 -42.37706,-25.96139 -67.27172,-25.96139 -24.90182,0 -48.79769,9.22033 -67.28365,25.96139 -3.49696,3.16681 -3.76394,8.56957 -0.59713,12.06773 3.168,3.49696 8.57076,3.76393 12.06772,0.59712 15.33703,-13.89009 35.15908,-21.53954 55.81306,-21.53954 20.64683,0 40.4641,7.64944 55.80114,21.53954 1.63524,1.4815 3.68765,2.21093 5.73291,2.21093 2.32892,0 4.6483,-0.94635 6.33481,-2.80805 z m -29.62878,24.91849 c 2.81996,-3.783 2.03929,-9.13571 -1.74252,-11.95687 -10.62198,-7.91881 -23.24273,-12.10467 -36.49755,-12.10467 -13.25364,0 -25.87677,4.1799 -36.50351,12.08917 -3.7842,2.8164 -4.56964,8.1691 -1.75205,11.95449 2.81639,3.783 8.16671,4.57322 11.95449,1.75205 7.65541,-5.69715 16.7506,-8.70902 26.30108,-8.70902 9.54691,0 18.63494,3.01425 26.2832,8.71737 1.53394,1.14301 3.32413,1.69484 5.10002,1.69365 2.60542,0 5.17868,-1.1871 6.85684,-3.43617 z m -38.24552,33.83909 c 6.59166,0 11.93525,-5.34358 11.93525,-11.93524 0,-6.59166 -5.34359,-11.93525 -11.93525,-11.93525 -6.59165,0 -11.93525,5.34359 -11.93525,11.93525 0,6.59166 5.3436,11.93524 11.93525,11.93524 z"
   stroke-linecap="round"
   id="path3" />
</g>
</g>
</g>
		<g
   transform="matrix(0.35186776,0.39078874,0.39078874,-0.35186776,-29.61493,28.711759)"
   id="g9">
<g
   paint-order="stroke"
   id="g8">
		<g
   id="g7">
<path
   style="opacity:1;fill:#094ca2;fill-rule:nonzero;stroke:none;stroke-width:1;stroke-linecap:butt;stroke-linejoin:miter;stroke-miterlimit:4;stroke-dasharray:none;stroke-dashoffset:0"
   paint-order="stroke"
   transform="translate(-99.99996,-67.888825)"
   d="m 191.4566,54.38519 c -2.1573,0 -4.31459,-0.81166 -5.97725,-2.43976 C 162.52505,29.46669 132.17042,17.0867 100.00652,17.0867 67.83547,17.0867 37.47606,29.46669 14.52058,51.94543 11.15115,55.24573 5.74243,55.19328 2.43975,51.81909 -0.86174,48.44847 -0.80572,43.03856 2.56609,39.73826 28.73368,14.11298 63.33853,0 100.00652,0 c 36.66084,0 71.26093,14.11298 97.42731,39.73826 3.37181,3.30149 3.42783,8.71021 0.12634,12.08083 -1.67337,1.70914 -3.88788,2.5661 -6.10357,2.5661 z m -23.58122,22.63488 c 3.16681,-3.49815 2.89983,-8.90092 -0.59714,-12.06773 -18.48595,-16.74105 -42.37706,-25.96139 -67.27172,-25.96139 -24.90182,0 -48.79769,9.22033 -67.28365,25.96139 -3.49696,3.16681 -3.76394,8.56957 -0.59713,12.06773 3.168,3.49696 8.57076,3.76393 12.06772,0.59712 15.33703,-13.89009 35.15908,-21.53954 55.81306,-21.53954 20.64683,0 40.4641,7.64944 55.80114,21.53954 1.63524,1.4815 3.68765,2.21093 5.73291,2.21093 2.32892,0 4.6483,-0.94635 6.33481,-2.80805 z m -29.62878,24.91849 c 2.81996,-3.783 2.03929,-9.13571 -1.74252,-11.95687 -10.62198,-7.91881 -23.24273,-12.10467 -36.49755,-12.10467 -13.25364,0 -25.87677,4.1799 -36.50351,12.08917 -3.7842,2.8164 -4.56964,8.1691 -1.75205,11.95449 2.81639,3.783 8.16671,4.57322 11.95449,1.75205 7.65541,-5.69715 16.7506,-8.70902 26.30108,-8.70902 9.54691,0 18.63494,3.01425 26.2832,8.71737 1.53394,1.14301 3.32413,1.69484 5.10002,1.69365 2.60542,0 5.17868,-1.1871 6.85684,-3.43617 z m -38.24552,33.83909 c 6.59166,0 11.93525,-5.34358 11.93525,-11.93524 0,-6.59166 -5.34359,-11.93525 -11.93525,-11.93525 -6.59165,0 -11.93525,5.34359 -11.93525,11.93525 0,6.59166 5.3436,11.93524 11.93525,11.93524 z"
   stroke-linecap="round"
   id="path6" />
</g>
</g>
</g>
		<g
   transform="scale(1.1229084,0.09581383)"
   id="g12">
<g
   paint-order="stroke"
   id="g11">
		<g
   id="g10">
<polygon
   style="opacity:1;fill:#094ca2;fill-rule:nonzero;stroke:none;stroke-width:1;stroke-linecap:butt;stroke-linejoin:miter;stroke-miterlimit:4;stroke-dasharray:none;stroke-dashoffset:0"
   paint-order="stroke"
   points="-100,-50 -100,50 100,50 100,-50 "
   id="polygon9" />
</g>
</g>
</g>
		<g
   transform="matrix(0,1.1229084,-0.09581383,0,0,0)"
   id="g15">
<g
   paint-order="stroke"
   id="g14">
		<g
   id="g13">
<polygon
   style="opacity:1;fill:#094ca2;fill-rule:nonzero;stroke:none;stroke-width:1;stroke-linecap:butt;stroke-linejoin:miter;stroke-miterlimit:4;stroke-dasharray:none;stroke-dashoffset:0"
   paint-order="stroke"
   points="-100,-50 -100,50 100,50 100,-50 "
   id="polygon12" />
</g>
</g>
</g>
		<g
   transform="scale(0.37578914)"
   id="g18">
<g
   paint-order="stroke"
   id="g17">
		<g
   id="g16">
<path
   style="opacity:1;fill:#094ca2;fill-rule:nonzero;stroke:none;stroke-width:1;stroke-linecap:butt;stroke-linejoin:miter;stroke-miterlimit:4;stroke-dasharray:none;stroke-dashoffset:0"
   paint-order="stroke"
   transform="translate(-100,-100)"
   d="M 200,100 C 200,155.22847 155.22847,200 100,200 44.771525,200 0,155.22847 0,100 0,44.771525 44.771525,0 100,0 155.22847,0 200,44.771525 200,100 Z"
   stroke-linecap="round"
   id="path15" />
</g>
</g>
</g>
</g>
</g>

</svg>
